<svg width="38" height="27" viewBox="0 0 38 27" fill="none" xmlns="http://www.w3.org/2000/svg">
<path d="M24.6264 14.5539L24.0652 13.7262L24.0512 13.7357L24.0376 13.7456L24.6264 14.5539ZM24.6264 12.762L24.0178 13.5554L24.0625 13.5897L24.1107 13.6187L24.6264 12.762ZM17.7322 7.47384L18.3408 6.68037L18.3126 6.65874L18.2829 6.63917L17.7322 7.47384ZM16.2868 8.26369L17.2868 8.26091L17.2868 8.2525L17.2866 8.2441L16.2868 8.26369ZM16.3157 18.6513L15.3157 18.6541L15.3158 18.6813L15.3174 18.7084L16.3157 18.6513ZM17.8141 19.517L18.3135 20.3833L18.3598 20.3567L18.4029 20.3252L17.8141 19.517ZM19 25C15.8077 25 12.3375 24.9994 9.42041 24.7741C7.96168 24.6615 6.67446 24.4949 5.64808 24.2541C4.58433 24.0047 3.95065 23.7081 3.65644 23.4357L2.29762 24.9032C2.99192 25.546 4.05988 25.9359 5.19141 26.2013C6.36031 26.4754 7.76203 26.652 9.26642 26.7682C12.2756 27.0006 15.8283 27 19 27V25ZM0 13.5C0 16.4158 -0.00246954 18.7112 0.257507 20.5016C0.522878 22.3292 1.0793 23.7751 2.29762 24.9032L3.65644 23.4357C2.89773 22.7332 2.46564 21.7906 2.23675 20.2143C2.00247 18.6008 2 16.4767 2 13.5H0ZM36 13.5C36 16.4767 35.9975 18.6008 35.7632 20.2143C35.5344 21.7906 35.1023 22.7332 34.3436 23.4357L35.7024 24.9032C36.9207 23.7751 37.4771 22.3292 37.7425 20.5016C38.0025 18.7112 38 16.4158 38 13.5H36ZM19 27C22.1717 27 25.7244 27.0006 28.7336 26.7682C30.238 26.652 31.6397 26.4754 32.8086 26.2013C33.9401 25.9359 35.0081 25.546 35.7024 24.9032L34.3436 23.4357C34.0494 23.7081 33.4157 24.0047 32.3519 24.2541C31.3255 24.4949 30.0383 24.6615 28.5796 24.7741C25.6625 24.9994 22.1923 25 19 25V27ZM19 2C22.1923 2 25.6625 2.00059 28.5796 2.22585C30.0383 2.3385 31.3255 2.50515 32.3519 2.74586C33.4157 2.99534 34.0494 3.29192 34.3436 3.56434L35.7024 2.09682C35.0081 1.45395 33.9401 1.06407 32.8086 0.798693C31.6397 0.524556 30.238 0.347966 28.7336 0.231791C25.7244 -0.000586987 22.1717 0 19 0V2ZM38 13.5C38 10.5842 38.0025 8.2888 37.7425 6.49836C37.4771 4.67075 36.9207 3.2249 35.7024 2.09682L34.3436 3.56434C35.1023 4.26685 35.5344 5.20942 35.7632 6.78575C35.9975 8.39923 36 10.5233 36 13.5H38ZM19 0C15.8283 0 12.2756 -0.000586987 9.26642 0.231791C7.76203 0.347966 6.36031 0.524556 5.19141 0.798693C4.05988 1.06407 2.99192 1.45395 2.29762 2.09682L3.65644 3.56434C3.95065 3.29192 4.58433 2.99534 5.64808 2.74586C6.67446 2.50515 7.96168 2.3385 9.42041 2.22585C12.3375 2.00059 15.8077 2 19 2V0ZM2 13.5C2 10.5233 2.00247 8.39923 2.23675 6.78575C2.46564 5.20942 2.89773 4.26685 3.65644 3.56434L2.29762 2.09682C1.0793 3.2249 0.522878 4.67075 0.257507 6.49836C-0.00246954 8.2888 0 10.5842 0 13.5H2ZM25.1877 15.3815C25.7198 15.0207 26.2875 14.4428 26.2865 13.6307C26.2854 12.797 25.6909 12.2356 25.1422 11.9052L24.1107 13.6187C24.1816 13.6614 24.2325 13.6988 24.2677 13.7287C24.303 13.7586 24.3184 13.7776 24.3223 13.7827C24.3258 13.7874 24.3163 13.776 24.3059 13.7476C24.295 13.7179 24.2865 13.6784 24.2865 13.6333C24.2864 13.5886 24.2947 13.5528 24.3028 13.5299C24.3104 13.5084 24.3157 13.5042 24.3068 13.5167C24.2977 13.5295 24.2767 13.5557 24.2363 13.5931C24.196 13.6303 24.1403 13.6753 24.0652 13.7262L25.1877 15.3815ZM25.235 11.9685L18.3408 6.68037L17.1236 8.26731L24.0178 13.5554L25.235 11.9685ZM18.2829 6.63917C17.7398 6.28082 16.9912 6.08617 16.2969 6.42383C15.5601 6.78219 15.2725 7.54369 15.287 8.28328L17.2866 8.2441C17.2843 8.1225 17.3072 8.08882 17.2979 8.10748C17.2928 8.11755 17.2806 8.13794 17.2572 8.16146C17.2336 8.18524 17.2044 8.20648 17.1717 8.22239C17.1037 8.25543 17.0568 8.24939 17.0577 8.24952C17.0609 8.24999 17.105 8.25812 17.1814 8.30851L18.2829 6.63917ZM15.2868 8.26647L15.3157 18.6541L17.3157 18.6486L17.2868 8.26091L15.2868 8.26647ZM15.3174 18.7084C15.3541 19.3511 15.5624 20.1439 16.2806 20.5435C17.0072 20.9476 17.7824 20.6895 18.3135 20.3833L17.3146 18.6506C17.2466 18.6898 17.1922 18.7149 17.1516 18.7303C17.1107 18.7458 17.0889 18.7497 17.0845 18.7503C17.0806 18.7509 17.0979 18.7479 17.1309 18.7529C17.1474 18.7554 17.1668 18.7598 17.1883 18.767C17.2098 18.7743 17.2316 18.7838 17.253 18.7957C17.2972 18.8203 17.329 18.8491 17.3489 18.8723C17.3678 18.8943 17.3715 18.9057 17.367 18.8958C17.3623 18.8854 17.3514 18.8574 17.3403 18.8057C17.3293 18.7543 17.3193 18.6847 17.3141 18.5943L15.3174 18.7084ZM18.4029 20.3252L25.2153 15.3621L24.0376 13.7456L17.2252 18.7087L18.4029 20.3252Z" fill="#F7E4FF"/>
</svg>
